HIERARCHY
ROOT Hips
{
     OFFSET 17.16230 100.52300 5.87854
     CHANNELS 6 Xposition Yposition Zposition Zrotation Xrotation Yrotation
     JOINT Spine
     {
          OFFSET -0.00000 11.89050 -0.00000
          CHANNELS 3 Zrotation Xrotation Yrotation
          JOINT Spine1
          {
               OFFSET -0.00000 25.65740 0.12766
               CHANNELS 3 Zrotation Xrotation Yrotation
               JOINT HEad
               {
                    OFFSET -0.00000 8.73416 0.01134
                    CHANNELS 3 Zrotation Xrotation Yrotation
                    End Site
                    {
                         OFFSET -0.29000 12.77420 2.51395
                    }
               }
               JOINT LeftShoulder1
               {
                    OFFSET 8.99000 -0.36225 -0.22000
                    CHANNELS 3 Zrotation Xrotation Yrotation
                    JOINT LeftArm
                    {
                         OFFSET 10.28270 -0.00338 0.32212
                         CHANNELS 3 Zrotation Xrotation Yrotation
                         JOINT LeftForeArm
                         {
                              OFFSET 32.76690 0.09914 -1.42434
                              CHANNELS 3 Zrotation Xrotation Yrotation
                              JOINT LeftHand
                              {
                                   OFFSET 27.56430 0.08536 1.02216
                                   CHANNELS 3 Zrotation Xrotation Yrotation
                                   End Site
                                   {
                                        OFFSET 16.74430 -0.60000 1.50291
                                   }
                              }
                         }
                    }
               }
               JOINT RightShoulder
               {
                    OFFSET -8.99000 -0.36225 -0.22000
                    CHANNELS 3 Zrotation Xrotation Yrotation
                    JOINT RightArm
                    {
                         OFFSET -10.28270 -0.00338 0.32212
                         CHANNELS 3 Zrotation Xrotation Yrotation
                         JOINT RightForeArm
                         {
                              OFFSET -32.89710 0.09914 -1.42434
                              CHANNELS 3 Zrotation Xrotation Yrotation
                              JOINT RightHand
                              {
                                   OFFSET -27.49210 0.08536 1.02216
                                   CHANNELS 3 Zrotation Xrotation Yrotation
                                   End Site
                                   {
                                        OFFSET -16.63120 -0.60000 1.50291
                                   }
                              }
                         }
                    }
               }
          }
     }
     JOINT LeftUpLeg
     {
          OFFSET 8.94580 -8.66707 0.10165
          CHANNELS 3 Zrotation Xrotation Yrotation
          JOINT LeftLeg
          {
               OFFSET -0.00000 -44.42270 1.37270
               CHANNELS 3 Zrotation Xrotation Yrotation
               JOINT LeftFoot
               {
                    OFFSET -0.25355 -42.09240 -1.46059
                    CHANNELS 3 Zrotation Xrotation Yrotation
                    JOINT LeftToes
                    {
                         OFFSET -0.04000 -4.41509 8.49910
                         CHANNELS 3 Zrotation Xrotation Yrotation
                         End Site
                         {
                              OFFSET 0.08000 -0.04745 9.77979
                         }
                    }
               }
          }
     }
     JOINT RightUpLeg
     {
          OFFSET -8.94580 -8.66707 0.10165
          CHANNELS 3 Zrotation Xrotation Yrotation
          JOINT RightLeg
          {
               OFFSET 0.00000 -44.42270 1.37270
               CHANNELS 3 Zrotation Xrotation Yrotation
               JOINT RightFoot
               {
                    OFFSET 0.25355 -42.09240 -1.46059
                    CHANNELS 3 Zrotation Xrotation Yrotation
                    JOINT RightToes
                    {
                         OFFSET 0.04000 -4.41509 8.49910
                         CHANNELS 3 Zrotation Xrotation Yrotation
                         End Site
                         {
                              OFFSET -0.08000 -0.13745 9.77979
                         }
                    }
               }
          }
     }
}
MOTION
Frames: 10
Frame Time: 0.01667
17.16230 100.52300 5.87854 -1.30578 -0.90366 -28.36420 0.42426 4.83218 2.10321 1.48211 9.68410 4.11392 2.05969 -2.07162 18.23170 -0.00000 -0.00000 0.00000 -68.92060 -34.89420 -84.20220 -9.96756 11.03030 -67.72250 5.55594 9.67997 -0.87718 12.95390 1.07921 4.15716 39.49250 -15.77690 82.93250 3.41978 2.75424 75.07470 -5.55712 9.68432 0.87760 5.25120 -11.33370 0.16712 4.58098 10.89150 -18.45230 -10.84210 -9.06919 -0.09605 -1.06945 12.17330 2.30729 -4.45779 -4.11680 -2.06859 -8.71261 15.60690 18.25940 11.72070 -22.87390 1.33808 11.85190 12.11910 -5.04132 
17.61880 100.55300 6.11854 -1.29376 -0.76547 -28.81940 0.34520 4.75784 2.11859 1.46428 9.52446 4.14037 2.32297 -1.77767 17.61360 -0.00000 -0.00000 0.00000 -68.49400 -34.63850 -85.29460 -9.50047 9.79754 -67.09050 5.55594 9.67997 -0.87718 12.06380 0.99507 3.91229 37.58620 -15.54480 84.31960 1.91579 -0.59166 73.00940 -5.55712 9.68432 0.87760 5.13210 -11.45550 0.58704 4.38251 11.01560 -18.44620 -9.81338 -8.82235 -0.06321 -1.09848 11.46810 2.49590 -5.33042 -4.44240 -2.64634 -7.68455 17.53840 16.76240 12.38650 -23.29320 1.47585 11.77260 12.51830 -4.42075 
18.02530 100.54300 6.34064 -1.25482 -0.68468 -29.20290 0.21325 4.71197 2.14919 1.41856 9.41525 4.19510 2.49641 -1.40155 16.97560 -0.00000 -0.00000 0.00000 -68.11120 -34.37450 -86.36840 -9.10140 8.75010 -66.58240 5.55594 9.67997 -0.87718 11.23920 0.91693 3.65909 35.89630 -15.58520 85.58030 0.47039 -3.62009 70.94520 -5.55712 9.68432 0.87760 4.97916 -11.66070 0.97646 4.20310 11.36200 -18.52790 -8.86710 -8.63892 -0.04016 -1.13147 10.62650 2.72481 -6.15855 -4.68360 -3.14338 -6.88710 19.71270 16.85390 13.12300 -24.04010 1.66743 12.13780 13.14400 -4.27590 
18.38480 100.51600 6.54251 -1.20903 -0.66338 -29.57960 0.03533 4.69020 2.20101 1.35936 9.35025 4.28485 2.54797 -0.92308 16.36680 -0.00000 -0.00000 0.00000 -67.76610 -34.16300 -87.39190 -8.76810 7.86936 -66.18600 5.55594 9.67997 -0.87718 10.48080 0.84862 3.42759 34.51970 -15.83160 86.71370 -0.87533 -6.24743 69.00150 -5.55712 9.68432 0.87760 4.81875 -11.87100 1.25541 4.05103 11.84160 -18.54480 -8.24036 -8.66181 -0.03624 -1.18663 10.17860 2.97232 -6.77112 -4.76177 -3.43921 -6.52292 21.76460 18.11680 13.72280 -24.32550 1.79209 12.11020 13.25680 -4.09524 
18.69940 100.49200 6.72730 -1.17147 -0.69554 -29.97930 -0.14732 4.67373 2.26695 1.30500 9.29426 4.39625 2.49813 -0.33377 15.82060 -0.00000 -0.00000 0.00000 -67.41380 -34.06170 -88.27800 -8.49456 7.13566 -65.89380 5.55594 9.67997 -0.87718 9.77396 0.79129 3.23847 33.54490 -16.18280 87.71190 -2.07009 -8.41556 67.30350 -5.55712 9.68432 0.87760 4.65865 -12.01420 1.39972 3.95429 12.33690 -18.42710 -8.09094 -8.97678 -0.05551 -1.27187 10.48550 3.19663 -7.09594 -4.66008 -3.51764 -6.65336 23.55600 19.73570 14.14330 -23.93810 1.80759 11.57190 12.82470 -3.71310 
18.96820 100.47700 6.89576 -1.13926 -0.76706 -30.38640 -0.30564 4.64406 2.33487 1.26347 9.21254 4.50690 2.41789 0.32055 15.34500 -0.00000 -0.00000 0.00000 -67.01920 -34.10900 -88.96700 -8.27715 6.54610 -65.70170 5.55594 9.67997 -0.87718 9.11622 0.74386 3.09271 33.04980 -16.55140 88.58810 -3.05105 -10.08470 65.96880 -5.55712 9.68432 0.87760 4.49807 -12.06880 1.40225 3.90882 12.76430 -18.15330 -8.41340 -9.53572 -0.09749 -1.37490 11.51010 3.35352 -7.22352 -4.41602 -3.36542 -7.07245 25.15750 20.93780 14.46710 -23.30470 1.77449 11.09820 12.37810 -3.45260 
19.19150 100.47300 7.04663 -1.10836 -0.85343 -30.76130 -0.41633 4.59364 2.39481 1.22944 9.09201 4.60357 2.38546 0.96047 14.91570 -0.00000 -0.00000 0.00000 -66.59420 -34.30750 -89.48640 -8.11415 6.12045 -65.59310 5.55594 9.67997 -0.87718 8.53530 0.70483 2.97577 33.09360 -16.90840 89.37580 -3.74320 -11.21310 65.08910 -5.55712 9.68432 0.87760 4.34758 -12.04900 1.26906 3.87357 13.07070 -17.73360 -9.00257 -10.13510 -0.15148 -1.45857 12.78430 3.40370 -7.32591 -4.08938 -2.93032 -7.35919 26.69470 21.23160 14.62640 -22.84870 1.73819 11.14470 12.32300 -3.59870 
19.37300 100.47800 7.18106 -1.07552 -0.93272 -31.08280 -0.46339 4.52195 2.44425 1.18648 8.93414 4.69315 2.44492 1.54595 14.49380 -0.00000 -0.00000 0.00000 -66.18000 -34.61120 -89.90690 -7.99833 5.87037 -65.53580 5.55594 9.67997 -0.87718 8.07569 0.67361 2.87263 33.64020 -17.26260 90.10740 -4.11052 -11.81120 64.67820 -5.55712 9.68432 0.87760 4.21172 -11.97490 1.06512 3.82283 13.22600 -17.23860 -9.55436 -10.54140 -0.19561 -1.48366 13.71400 3.33226 -7.53267 -3.72696 -2.21074 -7.16010 28.21700 20.44040 14.50280 -22.63920 1.69414 11.66450 12.62320 -4.11214 
19.51650 100.48800 7.29951 -1.02534 -0.99581 -31.37000 -0.46137 4.42873 2.48785 1.11760 8.73963 4.79187 2.58413 2.10080 14.06390 -0.00000 -0.00000 0.00000 -65.82290 -34.94690 -90.26930 -7.92332 5.77821 -65.50100 5.55594 9.67997 -0.87718 7.75537 0.65026 2.78206 34.54160 -17.60280 90.80820 -4.20614 -11.99110 64.64920 -5.55712 9.68432 0.87760 4.07722 -11.87980 0.90096 3.76449 13.26030 -16.77490 -9.85067 -10.66500 -0.21328 -1.44632 13.99550 3.17912 -7.87371 -3.37102 -1.32645 -6.42841 29.70820 18.68800 14.15250 -22.59020 1.64005 12.39960 13.04250 -4.83159 
19.62620 100.49100 7.39568 -0.93997 -1.04395 -31.66110 -0.44748 4.31584 2.53360 1.02377 8.51035 4.91016 2.73754 2.65905 13.65380 -0.00000 -0.00000 0.00000 -65.57510 -35.24970 -90.58050 -7.89232 5.80947 -65.47750 5.55594 9.67997 -0.87718 7.53968 0.63385 2.71206 35.66270 -17.88530 91.49470 -4.12156 -11.89160 64.89290 -5.55712 9.68432 0.87760 3.93487 -11.80950 0.84909 3.70721 13.25750 -16.41070 -9.85128 -10.58600 -0.20686 -1.38664 13.73010 3.04264 -8.30394 -3.06289 -0.47560 -5.37256 31.14400 16.28280 13.72190 -22.56640 1.57846 13.02680 13.30280 -5.54989 
